<?xml version="1.0" encoding="UTF-8" standalone="no"?>
<!DOCTYPE svg PUBLIC "-//W3C//DTD SVG 1.1//EN" "http://www.w3.org/Graphics/SVG/1.1/DTD/svg11.dtd">
<svg width="100%" height="100%" viewBox="0 0 4252 4252" version="1.1" xmlns="http://www.w3.org/2000/svg" xmlns:xlink="http://www.w3.org/1999/xlink" xml:space="preserve" xmlns:serif="http://www.serif.com/" style="fill-rule:evenodd;clip-rule:evenodd;stroke-linecap:round;stroke-linejoin:round;stroke-miterlimit:1.5;">
    <g transform="matrix(1,0,0,1,-4354.31,-18302.8)">
        <g id="Artboard10" transform="matrix(0.72,0,0,0.719906,-452.107,6531.05)">
            <rect x="6675.58" y="16351.8" width="5905.51" height="5905.51" style="fill:none;"/>
            <g transform="matrix(1.38889,0,0,1.38907,-3362.44,-7613.66)">
                <g transform="matrix(1,0,0,1,0.579754,0.805962)">
                    <path d="M10863.3,18249C10863.3,18055.4 10706.1,17898.3 10512.5,17898.3L8202.27,17898.3C8008.67,17898.3 7851.49,18055.4 7851.49,18249L7851.49,20559.3C7851.49,20752.9 8008.67,20910.1 8202.27,20910.1L10512.5,20910.1C10706.1,20910.1 10863.3,20752.9 10863.3,20559.3L10863.3,18249ZM10750.3,18289.8C10750.3,18136.1 10625.5,18011.2 10471.7,18011.2L8243.05,18011.2C8089.3,18011.2 7964.47,18136.1 7964.47,18289.8L7964.47,20518.5C7964.47,20672.3 8089.3,20797.1 8243.05,20797.1L10471.7,20797.1C10625.5,20797.1 10750.3,20672.3 10750.3,20518.5L10750.3,18289.8Z" style="fill:rgb(0,77,6);"/>
                </g>
                <g transform="matrix(6.73674e-05,-1,0.574744,4.71848e-05,-2312.93,28509.6)">
                    <path d="M8504.14,17675.7L8504.14,17264.7" style="fill:none;stroke:rgb(0,77,6);stroke-width:132.83px;"/>
                </g>
                <g transform="matrix(4.27345e-05,-1,0.574632,7.43684e-05,-2310.78,27947.1)">
                    <path d="M8504.14,17675.7L8504.14,17264.7" style="fill:none;stroke:rgb(0,77,6);stroke-width:132.84px;"/>
                </g>
                <g transform="matrix(4.27345e-05,-1,0.574632,7.43684e-05,-2310.76,27387.5)">
                    <path d="M8504.14,17675.7L8504.14,17264.7" style="fill:none;stroke:rgb(0,77,6);stroke-width:132.84px;"/>
                </g>
                <g transform="matrix(7.43684e-05,-1,1,7.43684e-05,-9887.85,27423.3)">
                    <circle cx="7419.96" cy="17394.9" r="102.75" style="fill:rgb(0,77,6);stroke:rgb(0,77,6);stroke-width:62.5px;"/>
                </g>
                <g transform="matrix(7.43684e-05,-1,1,7.43684e-05,-9887.81,26863)">
                    <circle cx="7419.96" cy="17394.9" r="102.75" style="fill:rgb(0,77,6);stroke:rgb(0,77,6);stroke-width:62.5px;"/>
                </g>
                <g transform="matrix(7.43684e-05,-1,1,7.43684e-05,-9887.77,26303.4)">
                    <circle cx="7419.96" cy="17394.9" r="102.75" style="fill:rgb(0,77,6);stroke:rgb(0,77,6);stroke-width:62.5px;"/>
                </g>
                <g transform="matrix(7.43684e-05,-1,1,7.43684e-05,-9887.77,25732.8)">
                    <circle cx="7419.96" cy="17394.9" r="102.75" style="fill:rgb(188,62,0);stroke:rgb(188,62,0);stroke-width:62.5px;"/>
                </g>
                <g transform="matrix(0.000376646,1,-0.574744,0.000208009,21031.6,10182.3)">
                    <path d="M8504.14,17675.7L8504.14,17264.7" style="fill:none;stroke:rgb(0,77,6);stroke-width:132.83px;"/>
                </g>
                <g transform="matrix(0.000401279,1,-0.574632,0.000180776,21029.7,10743.8)">
                    <path d="M8504.14,17675.7L8504.14,17264.7" style="fill:none;stroke:rgb(0,77,6);stroke-width:132.84px;"/>
                </g>
                <g transform="matrix(0.000401279,1,-0.574632,0.000180776,21029.9,11303.4)">
                    <path d="M8504.14,17675.7L8504.14,17264.7" style="fill:none;stroke:rgb(0,77,6);stroke-width:132.84px;"/>
                </g>
                <g transform="matrix(0.000369645,1,-1,0.000369645,28607,11265.2)">
                    <circle cx="7419.96" cy="17394.9" r="102.75" style="fill:rgb(0,77,6);stroke:rgb(0,77,6);stroke-width:62.5px;"/>
                </g>
                <g transform="matrix(0.000369645,1,-1,0.000369645,28607.2,11824.5)">
                    <circle cx="7419.96" cy="17394.9" r="102.75" style="fill:rgb(0,77,6);stroke:rgb(0,77,6);stroke-width:62.5px;"/>
                </g>
                <g transform="matrix(0.000369645,1,-1,0.000369645,28607.4,12384.1)">
                    <circle cx="7419.96" cy="17394.9" r="102.75" style="fill:rgb(0,77,6);stroke:rgb(0,77,6);stroke-width:62.5px;"/>
                </g>
                <g transform="matrix(0.000369645,1,-1,0.000369645,28604.7,12932.5)">
                    <circle cx="7419.96" cy="17394.9" r="102.75" style="fill:rgb(188,62,0);stroke:rgb(188,62,0);stroke-width:62.5px;"/>
                </g>
                <g transform="matrix(1,0.000227373,-0.000139147,0.574744,77.8341,7745.73)">
                    <path d="M8504.14,17675.7L8504.14,17264.7" style="fill:none;stroke:rgb(0,77,6);stroke-width:132.83px;"/>
                </g>
                <g transform="matrix(1,0.00020274,-0.000166313,0.574632,639.354,7747.97)">
                    <path d="M8504.14,17675.7L8504.14,17264.7" style="fill:none;stroke:rgb(0,77,6);stroke-width:132.84px;"/>
                </g>
                <g transform="matrix(1,0.00020274,-0.000166313,0.574632,1198.97,7748.09)">
                    <path d="M8504.14,17675.7L8504.14,17264.7" style="fill:none;stroke:rgb(0,77,6);stroke-width:132.84px;"/>
                </g>
                <g transform="matrix(1,0.00020274,-0.000166313,0.574632,1758.94,7748.19)">
                    <path d="M8504.14,17675.7L8504.14,17264.7" style="fill:none;stroke:rgb(0,77,6);stroke-width:132.84px;"/>
                </g>
                <g transform="matrix(1,0.000234374,-0.000234374,1,1165.36,170.987)">
                    <circle cx="7419.96" cy="17394.9" r="102.75" style="fill:rgb(0,77,6);stroke:rgb(0,77,6);stroke-width:62.5px;"/>
                </g>
                <g transform="matrix(1,0.000234374,-0.000234374,1,1724.67,171.113)">
                    <circle cx="7419.96" cy="17394.9" r="102.75" style="fill:rgb(0,77,6);stroke:rgb(0,77,6);stroke-width:62.5px;"/>
                </g>
                <g transform="matrix(1,0.000234374,-0.000234374,1,2284.28,171.25)">
                    <circle cx="7419.96" cy="17394.9" r="102.75" style="fill:rgb(0,77,6);stroke:rgb(0,77,6);stroke-width:62.5px;"/>
                </g>
                <g transform="matrix(1,0.000234374,-0.000234374,1,2844.26,171.367)">
                    <circle cx="7419.96" cy="17394.9" r="102.75" style="fill:rgb(0,77,6);stroke:rgb(0,77,6);stroke-width:62.5px;"/>
                </g>
                <g transform="matrix(-1,-0.000227373,0.000139147,-0.574744,18743.5,31072.1)">
                    <path d="M8504.14,17675.7L8504.14,17264.7" style="fill:none;stroke:rgb(0,77,6);stroke-width:132.83px;"/>
                </g>
                <g transform="matrix(-1,-0.00020274,0.000166313,-0.574632,18181.9,31069.8)">
                    <path d="M8504.14,17675.7L8504.14,17264.7" style="fill:none;stroke:rgb(0,77,6);stroke-width:132.84px;"/>
                </g>
                <g transform="matrix(-1,-0.00020274,0.000166313,-0.574632,17622.3,31069.7)">
                    <path d="M8504.14,17675.7L8504.14,17264.7" style="fill:none;stroke:rgb(0,77,6);stroke-width:132.84px;"/>
                </g>
                <g transform="matrix(-1,-0.00020274,0.000166313,-0.574632,17062.4,31069.6)">
                    <path d="M8504.14,17675.7L8504.14,17264.7" style="fill:none;stroke:rgb(0,77,6);stroke-width:132.84px;"/>
                </g>
                <g transform="matrix(-1,-0.000234374,0.000234374,-1,17655.9,38646.8)">
                    <circle cx="7419.96" cy="17394.9" r="102.75" style="fill:rgb(0,77,6);stroke:rgb(0,77,6);stroke-width:62.5px;"/>
                </g>
                <g transform="matrix(-1,-0.000234374,0.000234374,-1,17096.6,38646.7)">
                    <circle cx="7419.96" cy="17394.9" r="102.75" style="fill:rgb(0,77,6);stroke:rgb(0,77,6);stroke-width:62.5px;"/>
                </g>
                <g transform="matrix(-1,-0.000234374,0.000234374,-1,16537,38646.6)">
                    <circle cx="7419.96" cy="17394.9" r="102.75" style="fill:rgb(0,77,6);stroke:rgb(0,77,6);stroke-width:62.5px;"/>
                </g>
                <g transform="matrix(-1,-0.000234374,0.000234374,-1,15977,38646.5)">
                    <circle cx="7419.96" cy="17394.9" r="102.75" style="fill:rgb(0,77,6);stroke:rgb(0,77,6);stroke-width:62.5px;"/>
                </g>
                <g transform="matrix(1,0,0,1,1926.27,12.1234)">
                    <path d="M8116.41,18724.4C8116.41,18646.2 8052.88,18582.6 7974.61,18582.6C7896.35,18582.6 7832.81,18646.2 7832.81,18724.4L7832.81,19943C7832.81,20021.3 7896.35,20084.8 7974.61,20084.8C8052.88,20084.8 8116.41,20021.3 8116.41,19943L8116.41,18724.4Z" style="fill:rgb(188,62,0);"/>
                </g>
                <g transform="matrix(1,0,0,1,2470.08,12.1234)">
                    <path d="M8116.41,18724.4C8116.41,18646.2 8052.88,18582.6 7974.61,18582.6C7896.35,18582.6 7832.81,18646.2 7832.81,18724.4L7832.81,19943C7832.81,20021.3 7896.35,20084.8 7974.61,20084.8C8052.88,20084.8 8116.41,20021.3 8116.41,19943L8116.41,18724.4Z" style="fill:rgb(188,62,0);"/>
                </g>
                <g transform="matrix(1,0,0,1,840.22,12.1234)">
                    <path d="M8116.41,18724.4C8116.41,18646.2 8052.88,18582.6 7974.61,18582.6C7896.35,18582.6 7832.81,18646.2 7832.81,18724.4L7832.81,19943C7832.81,20021.3 7896.35,20084.8 7974.61,20084.8C8052.88,20084.8 8116.41,20021.3 8116.41,19943L8116.41,18724.4Z" style="fill:rgb(188,62,0);"/>
                </g>
                <g transform="matrix(1,0,0,1,297.22,12.1234)">
                    <path d="M8116.41,18724.4C8116.41,18646.2 8052.88,18582.6 7974.61,18582.6C7896.35,18582.6 7832.81,18646.2 7832.81,18724.4L7832.81,19943C7832.81,20021.3 7896.35,20084.8 7974.61,20084.8C8052.88,20084.8 8116.41,20021.3 8116.41,19943L8116.41,18724.4Z" style="fill:rgb(188,62,0);"/>
                </g>
                <g transform="matrix(1,0,0,1,1383.36,12.1234)">
                    <path d="M8116.41,18724.4C8116.41,18646.2 8052.88,18582.6 7974.61,18582.6C7896.35,18582.6 7832.81,18646.2 7832.81,18724.4L7832.81,19943C7832.81,20021.3 7896.35,20084.8 7974.61,20084.8C8052.88,20084.8 8116.41,20021.3 8116.41,19943L8116.41,18724.4Z" style="fill:rgb(188,62,0);"/>
                </g>
                <g transform="matrix(1,0,0,1,-269.781,42.0826)">
                    <path d="M8541.61,20054.9C8541.84,20121.4 8564.28,20189.5 8603.69,20239.5C8645.62,20292.6 8721.04,20326.5 8811.54,20326.5C8902.04,20326.5 8982.59,20292 9020.57,20243.9C9057.13,20197.6 9084.61,20113.8 9084.61,20054.9" style="fill:none;stroke:rgb(188,62,0);stroke-width:108.33px;"/>
                </g>
                <g transform="matrix(1,0,0,1,816.361,42.0826)">
                    <path d="M8541.61,20054.9C8541.84,20121.4 8718.92,20130.6 8683.42,20292.5C8651.91,20436 8520.31,20463.3 8704.57,20559C8769.69,20592.8 8782.53,20616.5 8942.72,20559.8C9082.9,20510.3 9038.14,20634.3 9161.03,20659.2C9432.75,20714.4 9437.43,20584.8 9433,20465C9423.27,20201.9 9184.09,20452.8 9084.52,20352.4C9037.13,20304.6 9077.49,20205.6 9084.61,20054.9" style="fill:none;stroke:rgb(188,62,0);stroke-width:108.33px;"/>
                </g>
                <g transform="matrix(-1,0.000354921,-0.000354921,-1,17906.7,38646.4)">
                    <path d="M8541.61,20054.9C8541.84,20121.4 8564.28,20189.5 8603.69,20239.5C8645.62,20292.6 8727.53,20335.4 8818.03,20335.4C8908.53,20335.4 8982.59,20292 9020.57,20243.9C9057.13,20197.6 9084.61,20113.8 9084.61,20054.9" style="fill:none;stroke:rgb(188,62,0);stroke-width:108.33px;"/>
                </g>
                <g transform="matrix(-1,0.000354921,-0.000354921,-1,18992.6,38646.2)">
                    <path d="M8541.61,20054.9C8541.84,20121.4 8564.28,20189.5 8603.69,20239.5C8645.62,20292.6 8725.12,20335.2 8815.62,20335.2C8906.12,20335.2 8982.59,20292 9020.57,20243.9C9057.13,20197.6 9084.61,20113.8 9084.61,20054.9" style="fill:none;stroke:rgb(188,62,0);stroke-width:108.33px;"/>
                </g>
                <g transform="matrix(-1,0.000354921,-0.000354921,-1,16820.6,38646.4)">
                    <path d="M8541.61,20054.9C8541.84,20121.4 8556.83,20209.8 8660.85,20275.1C8836.12,20385 9096.34,20315.6 9321.48,20340.4" style="fill:none;stroke:rgb(188,62,0);stroke-width:108.33px;"/>
                </g>
                <g transform="matrix(-0.999999,0.00165407,0.00165407,0.999999,19486.6,-26.9165)">
                    <path d="M8307.68,20365.4C8565.13,20361.4 8830,20399.1 8951.27,20324.7C9052.64,20262.4 9084.61,20113.8 9084.61,20054.9" style="fill:none;stroke:rgb(188,62,0);stroke-width:108.33px;"/>
                </g>
            </g>
        </g>
    </g>
</svg>
