<?xml version="1.0" encoding="UTF-8" standalone="no"?>
<!DOCTYPE svg PUBLIC "-//W3C//DTD SVG 1.1//EN" "http://www.w3.org/Graphics/SVG/1.1/DTD/svg11.dtd">
<svg width="100%" height="100%" viewBox="0 0 14748 5044" version="1.1" xmlns="http://www.w3.org/2000/svg" xmlns:xlink="http://www.w3.org/1999/xlink" xml:space="preserve" xmlns:serif="http://www.serif.com/" style="fill-rule:evenodd;clip-rule:evenodd;stroke-linecap:round;stroke-linejoin:round;stroke-miterlimit:1.5;">
    <g transform="matrix(1,0,0,1,-8032.3,-26077)">
        <g id="Artboard12" transform="matrix(2.49729,0,0,0.853966,-8638.59,12113.1)">
            <rect x="6675.58" y="16351.8" width="5905.51" height="5905.51" style="fill:none;"/>
            <g transform="matrix(-0.400433,-0.000274453,9.38511e-05,-1.17101,11982.7,38506.2)">
                <circle cx="7419.96" cy="17394.9" r="102.75" style="fill:rgb(0,77,6);stroke:rgb(0,77,6);stroke-width:62.5px;"/>
            </g>
            <g transform="matrix(-0.400433,-0.000274453,9.38511e-05,-1.17101,12877.3,38506.2)">
                <circle cx="7419.96" cy="17394.9" r="102.75" style="fill:rgb(0,77,6);stroke:rgb(0,77,6);stroke-width:62.5px;"/>
            </g>
            <g transform="matrix(0.400434,0,0,1.17101,6517.59,-10284.1)">
                <path d="M5982.92,24469.2C5982.92,24288.3 5863.34,24165.8 5686.88,24165.8L5138.55,24165.8L5138.55,25406.9L5702.92,25406.9C5876.47,25406.9 5998.97,25285.8 5998.97,25078.8L5998.97,25001.5C5998.97,24919.8 5968.34,24838.1 5896.88,24785.6L5895.42,24785.6C5949.38,24730.2 5982.92,24648.6 5982.92,24569.8L5982.92,24469.2ZM5352.92,24391.9L5647.51,24391.9C5713.13,24391.9 5768.55,24454.6 5768.55,24527.5L5768.55,24546.5C5768.55,24620.8 5713.13,24682.1 5647.51,24682.1L5352.92,24682.1L5352.92,24391.9ZM5784.59,25040.8C5784.59,25116.7 5729.17,25177.9 5662.09,25177.9L5352.92,25177.9L5352.92,24892.1L5662.09,24892.1C5729.17,24892.1 5784.59,24953.3 5784.59,25027.7L5784.59,25040.8Z" style="fill:rgb(0,77,6);fill-rule:nonzero;"/>
                <path d="M6325.63,24479.4L6111.26,24479.4L6111.26,25406.9L6325.63,25406.9L6325.63,24479.4ZM6325.63,24165.8L6111.26,24165.8L6325.63,24165.8Z" style="fill:rgb(0,77,6);fill-rule:nonzero;"/>
                <g transform="matrix(1,0,0,1,2252.26,0)">
                    <path d="M6325.63,24479.4L6111.26,24479.4L6111.26,25406.9L6325.63,25406.9L6325.63,24479.4ZM6325.63,24165.8L6111.26,24165.8L6325.63,24165.8Z" style="fill:rgb(0,77,6);fill-rule:nonzero;"/>
                </g>
                <path d="M6799.59,24479.4C6588.13,24479.4 6458.34,24612.1 6458.34,24817.7L6458.34,25067.1C6458.34,25272.7 6588.13,25406.9 6799.59,25406.9L6873.97,25406.9C7086.88,25406.9 7216.67,25272.7 7216.67,25067.1L7216.67,24817.7C7216.67,24612.1 7086.88,24479.4 6873.97,24479.4L6799.59,24479.4ZM6873.97,24687.9C6951.26,24687.9 7008.13,24744.8 7008.13,24823.6L7008.13,25061.3C7008.13,25140 6951.26,25196.9 6873.97,25196.9L6799.59,25196.9C6723.76,25196.9 6665.42,25140 6665.42,25061.3L6665.42,24823.6C6665.42,24744.8 6723.76,24687.9 6799.59,24687.9L6873.97,24687.9Z" style="fill:rgb(0,77,6);fill-rule:nonzero;"/>
                <path d="M7695.01,24636.9C7623.55,24636.9 7579.8,24588.8 7579.8,24527.5C7579.8,24424 7655.63,24407.9 7750.42,24407.9L8168.97,24407.9L8168.97,24165.8L7655.63,24165.8C7460.22,24165.8 7331.88,24332.1 7331.88,24515.8C7331.88,24774 7493.76,24879 7741.67,24879L7888.97,24879C7980.84,24879 8052.3,24934.4 8052.3,25029.2C8052.3,25129.8 7970.63,25176.5 7871.47,25176.5L7371.26,25176.5L7371.26,25406.9L7937.09,25406.9C8139.8,25406.9 8278.34,25243.6 8278.34,25029.2C8278.34,24801.7 8125.22,24636.9 7918.13,24636.9L7695.01,24636.9Z" style="fill:rgb(0,77,6);fill-rule:nonzero;"/>
                <path d="M9768.76,24686.5C9897.09,24686.5 9917.51,24752.1 9917.51,24839.6L9917.51,25406.9L10130.4,25406.9L10130.4,24795.8C10130.4,24638.3 10018.1,24479.4 9800.84,24479.4L9707.51,24479.4C9609.8,24479.4 9531.05,24511.5 9474.17,24561.1C9420.22,24511.5 9342.92,24479.4 9246.67,24479.4L9167.92,24479.4C9112.51,24479.4 9061.47,24489.6 9016.26,24507.1L9016.26,24479.4L8801.88,24479.4L8801.88,25406.9L9016.26,25406.9L9016.26,24839.6C9016.26,24752.1 9041.05,24686.5 9169.38,24686.5L9213.13,24686.5C9341.47,24686.5 9361.88,24752.1 9361.88,24839.6L9361.88,25406.9L9576.26,25406.9L9576.26,24838.1C9576.26,24752.1 9593.76,24686.5 9723.55,24686.5L9768.76,24686.5Z" style="fill:rgb(0,77,6);fill-rule:nonzero;"/>
                <path d="M10293.8,25406.9L10859.6,25406.9C11022.9,25406.9 11154.2,25259.6 11154.2,25078.8L11154.2,24494C11154.2,24313.1 11022.9,24165.8 10859.6,24165.8L10293.8,24165.8L10293.8,25406.9ZM10521.3,25177.9L10521.3,24393.3L10804.2,24393.3C10872.7,24393.3 10928.1,24456.1 10928.1,24530.4L10928.1,25040.8C10928.1,25116.7 10872.7,25177.9 10804.2,25177.9L10521.3,25177.9Z" style="fill:rgb(0,77,6);fill-rule:nonzero;"/>
                <path d="M12160.4,24469.2C12160.4,24288.3 12040.8,24165.8 11864.4,24165.8L11316,24165.8L11316,25406.9L11880.4,25406.9C12054,25406.9 12176.5,25285.8 12176.5,25078.8L12176.5,25001.5C12176.5,24919.8 12145.8,24838.1 12074.4,24785.6L12072.9,24785.6C12126.9,24730.2 12160.4,24648.6 12160.4,24569.8L12160.4,24469.2ZM11530.4,24391.9L11825,24391.9C11890.6,24391.9 11946,24454.6 11946,24527.5L11946,24546.5C11946,24620.8 11890.6,24682.1 11825,24682.1L11530.4,24682.1L11530.4,24391.9ZM11962.1,25040.8C11962.1,25116.7 11906.7,25177.9 11839.6,25177.9L11530.4,25177.9L11530.4,24892.1L11839.6,24892.1C11906.7,24892.1 11962.1,24953.3 11962.1,25027.7L11962.1,25040.8Z" style="fill:rgb(0,77,6);fill-rule:nonzero;"/>
            </g>
            <g transform="matrix(0.400434,0,0,1.17101,4268.41,-3807.08)">
                <path d="M10863.3,18249C10863.3,18055.4 10706.1,17898.3 10512.5,17898.3L8202.27,17898.3C8008.67,17898.3 7851.49,18055.4 7851.49,18249L7851.49,20559.3C7851.49,20752.9 8008.67,20910.1 8202.27,20910.1L10512.5,20910.1C10706.1,20910.1 10863.3,20752.9 10863.3,20559.3L10863.3,18249ZM10750.3,18289.8C10750.3,18136.1 10625.5,18011.2 10471.7,18011.2L8243.05,18011.2C8089.3,18011.2 7964.47,18136.1 7964.47,18289.8L7964.47,20518.5C7964.47,20672.3 8089.3,20797.1 8243.05,20797.1L10471.7,20797.1C10625.5,20797.1 10750.3,20672.3 10750.3,20518.5L10750.3,18289.8Z" style="fill:rgb(0,77,6);"/>
            </g>
            <g transform="matrix(2.69762e-05,-1.17101,0.230147,5.52538e-05,3342,29576.9)">
                <path d="M8504.14,17675.7L8504.14,17264.7" style="fill:none;stroke:rgb(0,77,6);stroke-width:132.83px;"/>
            </g>
            <g transform="matrix(1.71123e-05,-1.17101,0.230102,8.7086e-05,3342.86,28918.2)">
                <path d="M8504.14,17675.7L8504.14,17264.7" style="fill:none;stroke:rgb(0,77,6);stroke-width:132.84px;"/>
            </g>
            <g transform="matrix(1.71123e-05,-1.17101,0.230102,8.7086e-05,3342.87,28262.9)">
                <path d="M8504.14,17675.7L8504.14,17264.7" style="fill:none;stroke:rgb(0,77,6);stroke-width:132.84px;"/>
            </g>
            <g transform="matrix(2.97796e-05,-1.17101,0.400434,8.7086e-05,308.747,28304.8)">
                <circle cx="7419.96" cy="17394.9" r="102.75" style="fill:rgb(0,77,6);stroke:rgb(0,77,6);stroke-width:62.5px;"/>
            </g>
            <g transform="matrix(2.97796e-05,-1.17101,0.400434,8.7086e-05,308.763,27648.7)">
                <circle cx="7419.96" cy="17394.9" r="102.75" style="fill:rgb(0,77,6);stroke:rgb(0,77,6);stroke-width:62.5px;"/>
            </g>
            <g transform="matrix(2.97796e-05,-1.17101,0.400434,8.7086e-05,308.78,26993.4)">
                <circle cx="7419.96" cy="17394.9" r="102.75" style="fill:rgb(0,77,6);stroke:rgb(0,77,6);stroke-width:62.5px;"/>
            </g>
            <g transform="matrix(2.97796e-05,-1.17101,0.400434,8.7086e-05,308.78,26325.2)">
                <circle cx="7419.96" cy="17394.9" r="102.75" style="fill:rgb(188,62,0);stroke:rgb(188,62,0);stroke-width:62.5px;"/>
            </g>
            <g transform="matrix(0.400433,0.000266255,-5.57191e-05,0.67303,4299.34,5262.29)">
                <path d="M8504.14,17675.7L8504.14,17264.7" style="fill:none;stroke:rgb(0,77,6);stroke-width:132.83px;"/>
            </g>
            <g transform="matrix(0.400433,0.00023741,-6.65971e-05,0.672898,4524.19,5264.9)">
                <path d="M8504.14,17675.7L8504.14,17264.7" style="fill:none;stroke:rgb(0,77,6);stroke-width:132.84px;"/>
            </g>
            <g transform="matrix(0.400433,0.00023741,-6.65971e-05,0.672898,4748.28,5265.04)">
                <path d="M8504.14,17675.7L8504.14,17264.7" style="fill:none;stroke:rgb(0,77,6);stroke-width:132.84px;"/>
            </g>
            <g transform="matrix(0.400433,0.00023741,-6.65971e-05,0.672898,4966.37,5265.04)">
                <path d="M8504.14,17675.7L8503.28,17264.9" style="fill:none;stroke:rgb(0,77,6);stroke-width:132.84px;"/>
            </g>
            <g transform="matrix(0.400434,0,0,1.17101,3459.18,-14184.5)">
                <path d="M12264.3,26531.9L13874.9,26531.9" style="fill:none;stroke:rgb(0,77,6);stroke-width:108.33px;stroke-linecap:butt;"/>
            </g>
            <g transform="matrix(0.400434,0,0,1.17101,3459.18,-14184.5)">
                <path d="M13869.8,26531.7L13869.8,27599.4L13869.8,26531.7Z" style="fill:none;stroke:rgb(0,77,6);stroke-width:108.33px;"/>
            </g>
            <g transform="matrix(0.400433,0.000274453,-9.38511e-05,1.17101,4734.82,-3607.8)">
                <circle cx="7419.96" cy="17394.9" r="102.75" style="fill:rgb(0,77,6);stroke:rgb(0,77,6);stroke-width:62.5px;"/>
            </g>
            <g transform="matrix(0.400433,0.000274453,-9.38511e-05,1.17101,4958.79,-3607.65)">
                <circle cx="7419.96" cy="17394.9" r="102.75" style="fill:rgb(0,77,6);stroke:rgb(0,77,6);stroke-width:62.5px;"/>
            </g>
            <g transform="matrix(0.400433,0.000274453,-9.38511e-05,1.17101,5182.88,-3607.49)">
                <circle cx="7419.96" cy="17394.9" r="102.75" style="fill:rgb(0,77,6);stroke:rgb(0,77,6);stroke-width:62.5px;"/>
            </g>
            <g transform="matrix(-0.400433,-0.000266255,5.57191e-05,-0.67303,11773.7,32577.6)">
                <path d="M8504.14,17675.7L8504.14,17264.7" style="fill:none;stroke:rgb(0,77,6);stroke-width:132.83px;"/>
            </g>
            <g transform="matrix(-0.400433,-0.00023741,6.65971e-05,-0.672898,11548.8,32575)">
                <path d="M8504.14,17675.7L8504.14,17264.7" style="fill:none;stroke:rgb(0,77,6);stroke-width:132.84px;"/>
            </g>
            <g transform="matrix(-0.400433,-0.00023741,6.65971e-05,-0.672898,11324.7,32574.9)">
                <path d="M8504.14,17675.7L8504.14,17264.7" style="fill:none;stroke:rgb(0,77,6);stroke-width:132.84px;"/>
            </g>
            <g transform="matrix(-0.400433,-0.00023741,6.65971e-05,-0.672898,11100.5,32574.7)">
                <path d="M8504.14,17675.7L8504.14,17264.7" style="fill:none;stroke:rgb(0,77,6);stroke-width:132.84px;"/>
            </g>
            <g transform="matrix(-0.400433,-0.000274453,9.38511e-05,-1.17101,11338.2,41447.7)">
                <circle cx="7419.96" cy="17394.9" r="102.75" style="fill:rgb(0,77,6);stroke:rgb(0,77,6);stroke-width:62.5px;"/>
            </g>
            <g transform="matrix(-0.400433,-0.000274453,9.38511e-05,-1.17101,11114.2,41447.5)">
                <circle cx="7419.96" cy="17394.9" r="102.75" style="fill:rgb(0,77,6);stroke:rgb(0,77,6);stroke-width:62.5px;"/>
            </g>
            <g transform="matrix(-0.400433,-0.000274453,9.38511e-05,-1.17101,10890.2,41447.4)">
                <circle cx="7419.96" cy="17394.9" r="102.75" style="fill:rgb(0,77,6);stroke:rgb(0,77,6);stroke-width:62.5px;"/>
            </g>
            <g transform="matrix(-0.400433,-0.000274453,9.38511e-05,-1.17101,10665.9,41447.2)">
                <circle cx="7419.96" cy="17394.9" r="102.75" style="fill:rgb(0,77,6);stroke:rgb(0,77,6);stroke-width:62.5px;"/>
            </g>
            <g transform="matrix(0.400434,0,0,1.17101,5039.52,-3793.83)">
                <path d="M8116.41,18724.4C8116.41,18646.2 8052.88,18582.6 7974.61,18582.6C7896.35,18582.6 7832.81,18646.2 7832.81,18724.4L7832.81,19943C7832.81,20021.3 7896.35,20084.8 7974.61,20084.8C8052.88,20084.8 8116.41,20021.3 8116.41,19943L8116.41,18724.4Z" style="fill:rgb(188,62,0);"/>
            </g>
            <g transform="matrix(0.400434,0,0,1.17101,5257.28,-3793.83)">
                <path d="M8116.41,18724.4C8116.41,18646.2 8052.88,18582.6 7974.61,18582.6C7896.35,18582.6 7832.81,18646.2 7832.81,18724.4L7832.81,19943C7832.81,20021.3 7896.35,20084.8 7974.61,20084.8C8052.88,20084.8 8116.41,20021.3 8116.41,19943L8116.41,18724.4Z" style="fill:rgb(188,62,0);"/>
            </g>
            <g transform="matrix(0.400434,0,0,1.17101,4604.63,-3793.83)">
                <path d="M8116.41,18724.4C8116.41,18646.2 8052.88,18582.6 7974.61,18582.6C7896.35,18582.6 7832.81,18646.2 7832.81,18724.4L7832.81,19943C7832.81,20021.3 7896.35,20084.8 7974.61,20084.8C8052.88,20084.8 8116.41,20021.3 8116.41,19943L8116.41,18724.4Z" style="fill:rgb(188,62,0);"/>
            </g>
            <g transform="matrix(0.400434,0,0,1.17101,4387.19,-3793.83)">
                <path d="M8116.41,18724.4C8116.41,18646.2 8052.88,18582.6 7974.61,18582.6C7896.35,18582.6 7832.81,18646.2 7832.81,18724.4L7832.81,19943C7832.81,20021.3 7896.35,20084.8 7974.61,20084.8C8052.88,20084.8 8116.41,20021.3 8116.41,19943L8116.41,18724.4Z" style="fill:rgb(188,62,0);"/>
            </g>
            <g transform="matrix(0.400434,0,0,1.17101,4822.12,-3793.83)">
                <path d="M8116.41,18724.4C8116.41,18646.2 8052.88,18582.6 7974.61,18582.6C7896.35,18582.6 7832.81,18646.2 7832.81,18724.4L7832.81,19943C7832.81,20021.3 7896.35,20084.8 7974.61,20084.8C8052.88,20084.8 8116.41,20021.3 8116.41,19943L8116.41,18724.4Z" style="fill:rgb(188,62,0);"/>
            </g>
            <g transform="matrix(0.400434,0,0,1.17101,4160.15,-3758.75)">
                <path d="M8541.61,20054.9C8541.84,20121.4 8564.28,20189.5 8603.69,20239.5C8645.62,20292.6 8721.04,20326.5 8811.54,20326.5C8902.04,20326.5 8982.59,20292 9020.57,20243.9C9057.13,20197.6 9084.61,20113.8 9084.61,20054.9" style="fill:none;stroke:rgb(188,62,0);stroke-width:108.33px;"/>
            </g>
            <g transform="matrix(0.400434,0,0,1.17101,4595.07,-3758.75)">
                <path d="M8541.61,20054.9C8541.84,20121.4 8718.92,20130.6 8683.42,20292.5C8651.91,20436 8520.31,20463.3 8704.57,20559C8769.69,20592.8 8782.53,20616.5 8942.72,20559.8C9082.9,20510.3 9038.14,20634.3 9161.03,20659.2C9432.75,20714.4 9437.43,20584.8 9433,20465C9423.27,20201.9 9184.09,20452.8 9084.52,20352.4C9037.13,20304.6 9077.49,20205.6 9084.61,20054.9" style="fill:none;stroke:rgb(188,62,0);stroke-width:108.33px;"/>
            </g>
            <g transform="matrix(-0.400433,0.000415615,-0.000142122,-1.17101,11438.6,41447.2)">
                <path d="M8541.61,20054.9C8541.84,20121.4 8564.28,20189.5 8603.69,20239.5C8645.62,20292.6 8727.53,20335.4 8818.03,20335.4C8908.53,20335.4 8982.59,20292 9020.57,20243.9C9057.13,20197.6 9084.61,20113.8 9084.61,20054.9" style="fill:none;stroke:rgb(188,62,0);stroke-width:108.33px;"/>
            </g>
            <g transform="matrix(-0.400433,0.000415615,-0.000142122,-1.17101,11873.5,41446.9)">
                <path d="M8541.61,20054.9C8541.84,20121.4 8564.28,20189.5 8603.69,20239.5C8645.62,20292.6 8725.12,20335.2 8815.62,20335.2C8906.12,20335.2 8982.59,20292 9020.57,20243.9C9057.13,20197.6 9084.61,20113.8 9084.61,20054.9" style="fill:none;stroke:rgb(188,62,0);stroke-width:108.33px;"/>
            </g>
            <g transform="matrix(-0.400433,0.000415615,-0.000142122,-1.17101,11003.7,41447.2)">
                <path d="M8541.61,20054.9C8541.84,20121.4 8556.83,20209.8 8660.85,20275.1C8836.12,20385 9096.34,20315.6 9321.48,20340.4" style="fill:none;stroke:rgb(188,62,0);stroke-width:108.33px;"/>
            </g>
            <g transform="matrix(0.000148018,1.17101,-0.400433,0.000432857,15717.9,11275.1)">
                <circle cx="7419.96" cy="17394.9" r="102.75" style="fill:rgb(188,62,0);stroke:rgb(188,62,0);stroke-width:62.5px;"/>
            </g>
            <g transform="matrix(-0.400433,0.00193693,0.000662345,1.17101,12066.7,-3900.49)">
                <path d="M8307.68,20365.4C8565.13,20361.4 8830,20399.1 8951.27,20324.7C9052.64,20262.4 9084.61,20113.8 9084.61,20054.9" style="fill:none;stroke:rgb(188,62,0);stroke-width:108.33px;"/>
            </g>
        </g>
    </g>
</svg>
