<?xml version="1.0" encoding="UTF-8" standalone="no"?>
<!DOCTYPE svg PUBLIC "-//W3C//DTD SVG 1.1//EN" "http://www.w3.org/Graphics/SVG/1.1/DTD/svg11.dtd">
<svg width="100%" height="100%" viewBox="0 0 232 232" version="1.1" xmlns="http://www.w3.org/2000/svg" xmlns:xlink="http://www.w3.org/1999/xlink" xml:space="preserve" xmlns:serif="http://www.serif.com/" style="fill-rule:evenodd;clip-rule:evenodd;stroke-linejoin:round;stroke-miterlimit:2;">
    <g id="Artboard1" transform="matrix(1,0,0,1,-114.417,-253.345)">
        <rect x="114.417" y="253.345" width="231.093" height="231.093" style="fill:none;"/>
        <g>
            <g transform="matrix(1.037,0,0,1.037,108.982,253.561)">
                <path d="M206.451,37.909C206.451,23.886 195.066,12.501 181.043,12.501L44.352,12.501C30.329,12.501 18.944,23.886 18.944,37.909L18.944,174.601C18.944,188.624 30.329,200.008 44.352,200.008L181.043,200.008C195.066,200.008 206.451,188.624 206.451,174.601L206.451,37.909Z" style="fill:white;"/>
            </g>
            <g transform="matrix(1,0,0,1,128.508,269.319)">
                <path d="M103.4,0.8C101.2,0.8 99.3,2.4 99,4.5C98.2,4.5 97.3,4.4 96.5,4.4C89.1,4.4 82,5.3 75.2,7C74.5,5.3 72.9,4.2 71,4.2C68.5,4.2 66.5,6.2 66.5,8.7C66.5,9 66.5,9.3 66.6,9.6C56,13.3 46.3,19 37.9,26.2C36.7,25.2 35.2,24.5 33.5,24.5C29.8,24.5 26.9,27.5 26.9,31.1C26.9,32.8 27.5,34.3 28.6,35.5C22.3,42.8 17.2,51.1 13.5,60.2C13.3,60.2 13.1,60.1 12.9,60.1C11,60.1 9.5,61.6 9.5,63.5C9.5,64.7 10.2,65.8 11.2,66.4C8.4,75.1 6.8,84.4 6.8,94C6.8,94.8 6.8,95.6 6.9,96.4C4.3,96.8 2.2,99 2.2,101.8C2.2,104.8 4.6,107.3 7.7,107.3L7.8,107.3C8.9,114.9 11,122.2 13.9,129C13,129.6 12.4,130.6 12.4,131.8C12.4,133.7 13.9,135.2 15.8,135.2C16.1,135.2 16.5,135.1 16.8,135C20.6,142.4 25.4,149.2 31,155.2C30.1,156.3 29.5,157.8 29.5,159.4C29.5,163.1 32.5,166 36.1,166C37.9,166 39.5,165.3 40.7,164.1C47.7,169.7 55.6,174.2 64.1,177.5C64.1,177.7 64,177.9 64,178.1C64,180 65.5,181.5 67.4,181.5C68.7,181.5 69.8,180.8 70.3,179.7C77.2,181.8 84.5,183.1 92,183.5C92.3,185.1 93.7,186.3 95.3,186.3C96.9,186.3 98.3,185.1 98.6,183.6C106.9,183.4 115,182.1 122.6,179.7C123.6,182 126,183.6 128.6,183.6C132.3,183.6 135.2,180.6 135.2,177C135.2,176.3 135.1,175.6 134.8,174.9C139.9,172.5 144.7,169.6 149.2,166.2C149.8,166.7 150.6,167 151.4,167C153.3,167 154.8,165.5 154.8,163.6C154.8,163 154.6,162.5 154.4,162C160.5,156.7 166,150.7 170.5,144C171.1,144.3 171.8,144.5 172.5,144.5C175,144.5 177,142.5 177,140C177,138.5 176.2,137.2 175.1,136.3C181.3,124.9 185,112 185.7,98.4C189.1,98.2 191.9,95.3 191.9,91.8C191.9,88.2 189,85.3 185.4,85.2C183.6,66.7 176.2,49.8 164.8,36.3C165.9,35.1 166.6,33.5 166.6,31.8C166.6,28.1 163.6,25.2 160,25.2C158.3,25.2 156.8,25.9 155.6,26.9C142.5,15.3 125.9,7.4 107.7,5.1C107.8,2.7 105.9,0.8 103.4,0.8ZM168.3,139.3L149,138.6C148.7,137 147.3,135.8 145.7,135.8C144.9,135.8 144.2,136.1 143.6,136.5L135.4,129.7C136,128.7 136.4,127.5 136.4,126.2C136.4,125.4 136.2,124.7 136,124L155,114.7C155.6,115.5 156.6,116 157.6,116C157.9,116 158.3,115.9 158.6,115.8L170,136.4C169.1,137.3 168.5,138.2 168.3,139.3ZM111.7,154.7C111.7,155.9 112.2,157.1 113,157.9L96.9,179.9C96.8,179.8 96.6,179.8 96.5,179.7L99.4,143.4C100.9,143.2 102,142 102.2,140.6C110.9,139.6 119,136.2 125.6,131.1C125.9,131.3 126.1,131.6 126.5,131.8L117.5,150.5C117.1,150.4 116.7,150.3 116.2,150.3C113.7,150.2 111.7,152.3 111.7,154.7ZM93.5,180.2L71.4,158.9C71.9,158.2 72.2,157.3 72.2,156.3C72.2,155.8 72.1,155.3 72,154.9L96.4,142.3C96.8,142.8 97.4,143.1 98,143.3L95.1,179.6C94.5,179.7 93.9,179.9 93.5,180.2ZM36.8,152.8L36.4,122.7C37.4,122.5 38.3,121.9 38.8,121L69,132.8C68.8,133.3 68.7,133.9 68.7,134.4C68.7,136.5 70,138.4 71.9,139.2L68.3,151.8C68.1,151.8 67.9,151.7 67.7,151.7C65.3,151.7 63.4,153.6 63.2,155.9L42.7,157.9C42.1,155.2 39.7,153.1 36.8,152.8ZM13.2,101.9C13.2,100.4 12.6,99.1 11.6,98.1L29.6,74.8C30.1,75.1 30.6,75.2 31.2,75.2C31.8,75.2 32.4,75 32.8,74.8L46.7,91C45.6,91.8 44.9,93.1 44.9,94.6C44.9,96.4 45.9,97.9 47.4,98.6L37.1,115.5C36.7,115.3 36.2,115.2 35.7,115.2C34.6,115.2 33.6,115.7 32.9,116.4L12.7,104C13,103.4 13.2,102.6 13.2,101.9ZM34,37.8C35.5,37.7 36.9,37.1 37.9,36.2L57.1,56.1C56,57.3 55.4,58.8 55.4,60.5C55.4,61.1 55.5,61.6 55.6,62.1L34.1,69.6C33.6,68.9 32.9,68.4 32,68.1L34,37.8ZM104.9,9.5L113.2,24.3C112.1,25.1 111.5,26.4 111.5,27.8C111.5,28.7 111.8,29.5 112.2,30.2L98.7,42.6C98,42 97.2,41.7 96.2,41.7C95.1,41.7 94.1,42.2 93.4,42.9L78.4,32.2C78.6,31.8 78.7,31.3 78.7,30.7C78.7,30.1 78.5,29.5 78.2,29L100.6,8.8C101.4,9.4 102.3,9.8 103.4,9.8C103.9,9.8 104.4,9.7 104.9,9.5ZM156.8,68.2C155.4,68.3 154.1,69 153.3,70L135,61C135.2,60.4 135.3,59.8 135.3,59.2C135.3,58.1 135,57.1 134.4,56.2L155.8,36.9C156.7,37.7 157.8,38.3 159,38.5L156.8,68.2ZM155.2,110.4C154.6,111 154.2,111.8 154.2,112.8C154.2,113.1 154.2,113.3 154.3,113.6L135.3,122.9C135.1,122.6 134.9,122.3 134.7,122.1C140.5,114.5 144.1,105.2 144.5,95.1C144.6,95.1 144.8,95 144.9,95L155.2,110.4ZM102.1,139.2C101.7,137.8 100.4,136.7 98.9,136.7C97.2,136.7 95.9,137.9 95.6,139.5C89.7,139.4 84.1,138.2 78.9,136.1C79.1,135.6 79.2,135 79.2,134.5C79.2,131.6 76.9,129.3 74,129.3C72.4,129.3 70.9,130.1 70,131.3C59.4,124 52,112.4 50.3,99C52.4,98.6 53.9,96.8 53.9,94.6C53.9,92.3 52.2,90.4 49.9,90.1C50.4,81.2 53.5,72.9 58.3,66C59.4,66.7 60.6,67.1 62,67.1C65.7,67.1 68.6,64.1 68.6,60.5C68.6,59 68.1,57.6 67.2,56.4C74.2,50.7 82.9,47.1 92.5,46.3C92.9,47.9 94.4,49.1 96.1,49.1C97.9,49.1 99.3,47.9 99.7,46.2C109.2,46.9 118,50.4 125.1,56C124.5,56.9 124.2,57.9 124.2,59.1C124.2,62.1 126.7,64.6 129.7,64.6C130.9,64.6 131.9,64.2 132.8,63.6C138.3,70.5 141.9,78.9 142.8,88.1C141.2,88.4 140,89.8 140,91.5C140,93.3 141.3,94.7 143,94.9C142.5,104.6 139.1,113.6 133.6,120.9C132.5,120.1 131.2,119.7 129.8,119.7C126.2,119.7 123.3,122.6 123.3,126.2C123.3,127.6 123.8,128.9 124.5,130C118.3,134.9 110.5,138.2 102.1,139.2ZM69.7,152.3L73.4,139.6C73.6,139.6 73.8,139.7 74.1,139.7C75.9,139.7 77.5,138.8 78.4,137.4C83.8,139.6 89.6,140.9 95.7,141L95.7,141.2L71.3,153.8C70.9,153.1 70.3,152.6 69.7,152.3ZM39.5,119C39.5,117.9 39,116.9 38.3,116.2L48.8,99C50.4,111.5 56.8,122.5 66.2,130.1L39.4,119.6C39.5,119.5 39.5,119.2 39.5,119ZM34,73.8C34.5,73.2 34.7,72.5 34.7,71.7C34.7,71.5 34.7,71.3 34.6,71.1L56.1,63.6C56.4,64.2 56.8,64.7 57.2,65.2C52.1,72.3 49,80.9 48.4,90.2C48.2,90.2 48.1,90.3 47.9,90.4L34,73.8ZM38.9,35.2C39.7,34.2 40.1,33 40.2,31.6L71.9,31.4C72.1,32.3 72.6,33 73.3,33.5L64.2,54.3C63.5,54.1 62.9,53.9 62.1,53.9C60.7,53.9 59.3,54.4 58.2,55.2L38.9,35.2ZM117,32.3L126.8,54.6C126.6,54.7 126.4,54.9 126.2,55.1C118.9,49.3 109.8,45.6 99.9,45C99.8,44.6 99.7,44.2 99.5,43.8L113.1,31.4C113.9,32 114.9,32.4 115.9,32.4C116.3,32.4 116.7,32.3 117,32.3ZM92.5,45C82.6,45.8 73.6,49.6 66.3,55.5C66,55.3 65.7,55.1 65.4,54.9L74.5,34.1C74.7,34.1 75,34.2 75.2,34.2C76.1,34.2 76.9,33.9 77.5,33.3L92.7,44.1C92.6,44.4 92.5,44.7 92.5,45ZM144.4,88.2C143.5,78.6 139.7,69.8 134,62.7C134.1,62.5 134.3,62.4 134.4,62.2L152.7,71.3C152.6,71.7 152.5,72.2 152.5,72.7C152.5,74 153.1,75.2 154,76L145.1,88.4C144.9,88.4 144.6,88.3 144.4,88.2ZM153.6,32C153.6,33.5 154.1,34.8 154.9,35.9L133.5,55.2C132.5,54.3 131.2,53.8 129.8,53.8C129.2,53.8 128.6,53.9 128.1,54.1L118.3,31.8C119.3,31.2 120.1,30.2 120.3,29L153.6,32ZM156.4,109.6L146.2,94.1C146.8,93.5 147.2,92.6 147.2,91.6C147.2,90.7 146.8,89.8 146.3,89.2L155.2,76.8C155.8,77.1 156.4,77.2 157.1,77.2C158.4,77.2 159.6,76.6 160.5,75.7L179.8,88.9C179.3,89.8 179,90.9 179,92C179,93.3 179.4,94.4 180,95.4L160,110.3C159.4,109.8 158.6,109.5 157.8,109.5C157.2,109.4 156.8,109.5 156.4,109.6ZM180.4,87.7L161.1,74.5C161.3,74 161.5,73.4 161.5,72.7C161.5,70.6 160.1,68.9 158.2,68.4L160.5,38.6C161.8,38.6 163,38.1 164,37.4C175.1,50.7 182.5,67.3 184.2,85.4C182.7,85.7 181.4,86.6 180.4,87.7ZM153.7,30.6L120.4,27.5C120.2,25.2 118.3,23.4 115.9,23.4C115.4,23.4 114.8,23.5 114.4,23.7L106.1,8.9C106.8,8.3 107.4,7.6 107.6,6.7C125.6,9 141.9,16.7 154.8,28.2C154.3,28.8 153.9,29.6 153.7,30.6ZM96.5,5.8C97.3,5.8 98.2,5.8 99,5.9C99.1,6.6 99.3,7.2 99.7,7.7L77.3,27.9C76.7,27.5 76,27.2 75.3,27.2L72.7,12.8C74.4,12.2 75.7,10.5 75.7,8.6L75.7,8.3C82.2,6.7 89.2,5.8 96.5,5.8ZM71,13.2L71.2,13.2L73.8,27.6C72.8,28.1 72,29 71.8,30.1L40.1,30.3C39.9,29.2 39.5,28.2 38.9,27.3C47.1,20.2 56.7,14.6 67.1,10.9C67.9,12.2 69.3,13.2 71,13.2ZM29.6,36.5C30.4,37.1 31.4,37.5 32.5,37.7L30.6,68.2C29.7,68.4 28.9,68.8 28.4,69.6L16.1,64.2C16.1,64 16.2,63.8 16.2,63.6C16.2,62.4 15.6,61.4 14.7,60.8C18.4,51.9 23.5,43.7 29.6,36.5ZM12.5,66.9L12.8,66.9C14,66.9 15,66.3 15.6,65.4L27.8,70.8C27.7,71.1 27.7,71.3 27.7,71.6C27.7,72.4 28,73.2 28.5,73.8L10.5,97.2C9.8,96.8 9.1,96.6 8.3,96.5C8.3,95.7 8.2,94.9 8.2,94.1C8.2,84.6 9.8,75.4 12.5,66.9ZM9.2,107.1C10.3,106.8 11.3,106.1 11.9,105.3L32.1,117.7C31.9,118.1 31.8,118.6 31.8,119C31.8,119.5 31.9,120 32.1,120.4L18.2,129.5C17.6,128.9 16.7,128.5 15.8,128.5C15.6,128.5 15.4,128.5 15.2,128.6C12.4,121.8 10.3,114.6 9.2,107.1ZM19.2,131.8C19.2,131.4 19.1,131 19,130.7L33,121.6C33.5,122.2 34.3,122.6 35.1,122.7L35.5,152.8C34.2,152.9 33.1,153.4 32.1,154.2C26.6,148.3 21.8,141.6 18.1,134.3C18.7,133.7 19.2,132.8 19.2,131.8ZM41.7,163.1C42.4,162.1 42.8,160.8 42.8,159.5L63.3,157.5C63.7,159.2 65.1,160.5 66.9,160.8L66.8,174.9C65.9,175.1 65.1,175.6 64.6,176.3C56.3,173 48.6,168.6 41.7,163.1ZM70.8,178.2C70.8,176.6 69.7,175.3 68.3,174.9L68.4,160.7C69.2,160.6 69.8,160.3 70.4,159.8L92.5,181.1C92.3,181.4 92.2,181.7 92.1,182C84.7,181.6 77.6,180.4 70.8,178.3L70.8,178.2ZM98.6,182.2C98.5,181.7 98.3,181.3 98,180.9L114.2,158.8C114.8,159.1 115.5,159.3 116.2,159.3C116.7,159.3 117.3,159.2 117.8,159L124.9,171.6C123.2,172.8 122.1,174.8 122.1,177C122.1,177.5 122.2,177.9 122.2,178.4C114.7,180.7 106.8,182 98.6,182.2ZM128.7,170.4C127.8,170.4 126.9,170.6 126.1,170.9L119,158.3C120,157.5 120.7,156.2 120.7,154.8C120.7,153.3 119.9,151.9 118.8,151.1L127.8,132.4C128.5,132.6 129.2,132.8 129.9,132.8C131.7,132.8 133.3,132.1 134.5,130.9L142.7,137.7C142.5,138.2 142.3,138.7 142.3,139.2C142.3,141.1 143.8,142.6 145.7,142.6L145.8,142.6L150.2,160.7C149.1,161.2 148.3,162.4 148.3,163.7C148.3,164.2 148.4,164.7 148.6,165.1C144.2,168.4 139.4,171.2 134.4,173.6C133.2,171.7 131.1,170.4 128.7,170.4ZM153.7,161.1C153.1,160.7 152.4,160.4 151.6,160.4L151.5,160.4L147.1,142.3C148,141.9 148.7,141.1 148.9,140.1L168.2,140.8C168.3,141.8 168.8,142.7 169.5,143.4C165.1,150 159.7,155.9 153.7,161.1ZM171.2,135.9L159.9,115.3C160.6,114.7 161.1,113.8 161.1,112.8C161.1,112.3 161,111.8 160.8,111.4L180.8,96.5C181.8,97.6 183.2,98.3 184.7,98.5C184,112 180.3,124.6 174.2,135.8C173.8,135.7 173.3,135.6 172.8,135.6C172.2,135.6 171.7,135.8 171.2,135.9Z" style="fill:url(#_Linear1);fill-rule:nonzero;"/>
            </g>
        </g>
    </g>
    <defs>
        <linearGradient id="_Linear1" x1="0" y1="0" x2="1" y2="0" gradientUnits="userSpaceOnUse" gradientTransform="matrix(132.281,132.281,-132.281,132.281,28.8562,26.4062)"><stop offset="0" style="stop-color:rgb(34,48,93);stop-opacity:1"/><stop offset="1" style="stop-color:rgb(65,122,189);stop-opacity:1"/></linearGradient>
    </defs>
</svg>
